<?xml version="1.0" standalone="no"?><svg xmlns="http://www.w3.org/2000/svg" viewBox="0 0 1440 320"><path fill="#0099ff" fill-opacity="1111.11" d="M0,224L30,234.7C60,245,120,267,180,250.7C240,235,300,181,360,160C420,139,480,149,540,170.7C600,192,660,224,720,202.7C780,181,840,107,900,80C960,53,1020,75,1080,106.7C1140,139,1200,181,1260,202.7C1320,224,1380,224,1410,224L1440,224L1440,320L1410,320C1380,320,1320,320,1260,320C1200,320,1140,320,1080,320C1020,320,960,320,900,320C840,320,780,320,720,320C660,320,600,320,540,320C480,320,420,320,360,320C300,320,240,320,180,320C120,320,60,320,30,320L0,320Z"></path></svg>